<svg xmlns="http://www.w3.org/2000/svg" viewBox="0 0 1024 1024" width="1024" height="1024">
  <defs>
    <linearGradient id="bg" x1="0" y1="0" x2="0" y2="1">
      <stop offset="0" stop-color="#0A0014"/>
      <stop offset="1" stop-color="#000000"/>
    </linearGradient>
    <radialGradient id="aura" cx="0.5" cy="0.5" r="0.55">
      <stop offset="0" stop-color="#FF6B6B" stop-opacity="0.7500000000000001"/>
      <stop offset="1" stop-color="#FF6B6B" stop-opacity="0"/>
    </radialGradient>
    <filter id="glow" x="-50%" y="-50%" width="200%" height="200%">
      <feGaussianBlur stdDeviation="6" result="b"/>
      <feMerge><feMergeNode in="b"/><feMergeNode in="SourceGraphic"/></feMerge>
    </filter>
    <pattern id="grid" width="32" height="32" patternUnits="userSpaceOnUse">
      <path d="M32 0H0V32" fill="none" stroke="#1B1B2E" stroke-width="0.5"/>
    </pattern>
  </defs>
  <rect width="1024" height="1024" fill="url(#bg)"/>
  <rect width="1024" height="1024" fill="url(#grid)"/>
  <circle cx="512" cy="512" r="420" fill="url(#aura)"/>
  <g opacity="0.18" stroke="#FF6B6B" stroke-width="1">
    <line x1="0" y1="512" x2="1024" y2="516"/>
    <line x1="0" y1="710" x2="1024" y2="714"/>
  </g>
  <g filter="url(#glow)">
    <polygon points="380,260 644,260 700,560 324,560" fill="#1A1A1A" stroke="#FF6B6B" stroke-width="2"/>
    <circle cx="512" cy="200" r="78" fill="#0E0E18" stroke="#FF6B6B" stroke-width="2.5"/>
    <rect x="448" y="186" width="128" height="22" rx="11" fill="#FF6B6B" opacity="0.85"/>
    <rect x="316" y="500" width="56" height="50" rx="6" fill="#7B2CBF" opacity="0.95"/>
    <rect x="324" y="540" width="48" height="120" rx="6" fill="#7B2CBF"/>
    <circle cx="348" cy="672" r="22" fill="#FF6B6B"/>
    <rect x="328" y="688" width="40" height="160" rx="4" fill="#2E2E2E"/>
    <circle cx="348" cy="860" r="28" fill="#FF6B6B"/>
  </g>
  <g font-family="ui-monospace, Menlo, monospace" font-size="22" fill="#E0E0E0">
    <text x="60" y="60" font-size="28" fill="#FF6B6B">INK_NOMAD</text>
    <text x="60" y="92" font-size="18" fill="#888">#0002 · LEVEL 12</text>
    <g transform="translate(60, 920)">
      <rect x="-12" y="-12" width="660" height="80" fill="#000" opacity="0.55"/>
      <text x="0"   y="14" fill="#888">UPPER_ARM</text>
      <text x="160" y="14" fill="#7B2CBF">▮ Bulwark</text>
      <text x="0"   y="40" fill="#888">ELBOW    </text>
      <text x="160" y="40" fill="#FF6B6B">● Pneumatic</text>
      <text x="0"   y="66" fill="#888">FOREARM  HAND</text>
      <text x="160" y="66" fill="#2E2E2E">▬</text>
      <text x="200" y="66" fill="#FF6B6B">● Solder</text>
    </g>
  </g>
  <g transform="translate(880, 920)">
    <rect x="0" y="0" width="100" height="100" fill="#000" opacity="0.6"/>
    <text x="50" y="46" text-anchor="middle" font-family="ui-monospace, monospace" font-size="14" fill="#FF6B6B">SOLAR</text>
    <text x="50" y="66" text-anchor="middle" font-family="ui-monospace, monospace" font-size="14" fill="#FF6B6B">PUNK</text>
  </g>
</svg>